<svg width="593" height="593" viewBox="0 0 593 593" fill="none" xmlns="http://www.w3.org/2000/svg">
<path d="M533.999 473.497C579.653 412.208 601.729 333.428 589.258 251.937C564.52 90.2843 413.313 -20.7175 251.545 4.01968C89.777 28.7398 -21.304 179.839 3.45085 341.492C28.1886 503.144 179.396 614.146 341.164 589.409C385.965 582.555 426.842 565.984 462.055 542.219L506.856 553.181L561.108 566.445L545.481 512.862L533.999 473.497ZM289.88 131.473C289.965 126.256 293.002 123.136 297.608 123.188C301.976 123.239 305.03 126.307 305.064 131.234C305.183 144.72 305.2 158.205 305.098 171.707C305.064 176.941 301.925 180.095 297.352 180.027C292.814 179.959 289.931 176.754 289.863 171.451C289.778 164.871 289.846 158.29 289.846 151.709C289.863 144.958 289.777 138.224 289.88 131.473ZM174.158 307.054C167.095 307.156 160.049 307.088 152.986 307.071C146.264 307.071 139.526 307.139 132.804 307.054C127.276 306.986 123.966 303.951 124.086 299.263C124.188 294.83 127.498 291.915 132.718 291.898C146.503 291.847 160.288 291.83 174.073 291.915C178.969 291.932 182.143 294.899 182.262 299.195C182.382 303.849 179.277 306.969 174.158 307.054ZM207.546 214.072C197.327 204.065 187.193 193.989 177.212 183.76C174.124 180.589 174.534 176.055 177.519 173.173C180.539 170.241 184.889 170.036 188.148 173.207C198.163 182.959 208.024 192.847 217.867 202.752C219.266 204.15 220.239 205.94 220.085 207.406C220.154 211.379 218.686 213.8 215.786 215.249C212.835 216.715 209.815 216.289 207.546 214.072ZM322.892 442.111H271.915C264.443 442.111 258.403 436.059 258.403 428.609C258.403 421.142 264.46 415.106 271.915 415.106H322.892C330.364 415.106 336.404 421.159 336.404 428.609C336.421 436.059 330.364 442.111 322.892 442.111ZM372.214 318.152C367.829 327.222 362.831 335.985 356.569 343.878C348.653 353.835 343.16 364.831 340.089 377.157C338.536 383.379 336.387 389.432 334.8 395.637C333.521 400.615 330.62 402.78 325.468 402.678C316.272 402.508 307.06 402.627 297.864 402.627C288.839 402.627 279.797 402.542 270.772 402.661C265.944 402.729 262.924 400.922 261.747 395.961C260.638 391.239 258.881 386.687 257.704 381.981C254.019 367.337 247.945 354.039 238.511 342.02C229.486 330.53 222.235 317.709 218.789 303.372C213.159 279.947 219.42 258.756 234.075 240.497C255.895 213.305 284.83 203.093 318.542 211.822C351.793 220.431 371.6 243.157 378.543 276.793C381.529 291.301 378.578 305.008 372.214 318.152ZM380.164 210.663C376.991 207.27 377.383 203.076 381.461 198.967C389.786 190.563 398.18 182.226 406.54 173.855C409.235 171.162 412.34 170.088 415.923 171.741C418.874 173.105 420.29 175.594 420.308 178.85C420.342 181.374 418.994 183.147 417.305 184.834C408.945 193.188 400.637 201.61 392.226 209.895C388.029 214.055 383.508 214.226 380.164 210.663ZM462.106 307.037C455.026 307.139 447.946 307.071 440.865 307.071C440.865 307.054 440.865 307.054 440.865 307.037C433.785 307.037 426.705 307.122 419.625 307.003C414.285 306.918 411.231 303.968 411.351 299.348C411.47 294.694 414.507 291.932 419.898 291.898C433.888 291.83 447.894 291.83 461.884 291.898C467.429 291.915 470.858 295.001 470.755 299.621C470.636 304.139 467.514 306.952 462.106 307.037Z" fill="#D5626D"/>
</svg>
